<?xml version="1.0" encoding="UTF-8"?>
<svg width="80px" height="80px" viewBox="0 0 80 80" version="1.1" xmlns="http://www.w3.org/2000/svg" xmlns:xlink="http://www.w3.org/1999/xlink">
    <!-- Generator: Sketch 64 (93537) - https://sketch.com -->
    <title>big-icon-厕所</title>
    <desc>Created with Sketch.</desc>
    <defs>
        <linearGradient x1="50%" y1="0%" x2="50%" y2="101.908323%" id="linearGradient-1">
            <stop stop-color="#6176D2" offset="0%"></stop>
            <stop stop-color="#4557A4" offset="100%"></stop>
        </linearGradient>
    </defs>
    <g id="页面-1" stroke="none" stroke-width="1" fill="none" fill-rule="evenodd">
        <g id="画板" transform="translate(-755.000000, -199.000000)" fill-rule="nonzero">
            <g id="big-icon-厕所" transform="translate(755.000000, 199.000000)">
                <g id="编组-3" transform="translate(15.000000, 15.000000)">
                    <circle id="椭圆形" fill="url(#linearGradient-1)" cx="25" cy="25" r="25"></circle>
                    <path d="M15.5447928,32.7429136 L18.0531915,23.6163481 L20.5713886,32.7429136 L24.9218925,32.7429136 L28.0867861,18.2471984 L23.8930571,18.2471984 L22.3743001,26.3454186 L20.150056,18.2471984 L15.9465286,18.2471984 L13.7320829,26.3454186 L12.2133259,18.2471984 L8,18.2471984 L11.1942889,32.7429136 L15.5447928,32.7429136 Z M36.493841,33 C37.7807018,33 38.8405655,32.8121292 39.6734323,32.4363876 C40.506299,32.060646 41.2036208,31.5036256 41.7653975,30.7653263 C42.3271743,30.027027 42.7387085,29.1074489 43,28.006592 L43,28.006592 L39.1100224,26.8200396 C38.9140538,27.7363217 38.5988708,28.4350692 38.1644737,28.9162821 C37.7300765,29.3974951 37.0882792,29.6381015 36.2390817,29.6381015 C35.3637551,29.6381015 34.6843972,29.3398154 34.2010078,28.7432432 C33.7176185,28.1466711 33.4759239,27.0441661 33.4759239,25.4357284 C33.4759239,24.1371127 33.6784248,23.1845748 34.0834267,22.5781147 C34.6190743,21.7607119 35.3898843,21.3520105 36.3958567,21.3520105 C36.8400523,21.3520105 37.241788,21.444298 37.6010638,21.6288728 C37.9603397,21.8134476 38.2640911,22.0771259 38.512318,22.4199077 C38.6625607,22.6242584 38.806271,22.9472643 38.943449,23.3889255 L38.943449,23.3889255 L42.8628219,22.5088991 C42.3598358,20.9795649 41.5906588,19.8457482 40.5552912,19.1074489 C39.5199235,18.3691496 38.0975177,18 36.2880739,18 C33.9756439,18 32.18743,18.6443639 30.9234323,19.9330916 C29.6594345,21.2218194 29.0274356,23.0659196 29.0274356,25.4653922 C29.0274356,27.2649967 29.3867115,28.7415953 30.1052632,29.8951879 C30.8238149,31.0487805 31.6779115,31.8546473 32.6675532,32.3127884 C33.6571948,32.7709295 34.9326241,33 36.493841,33 Z" id="WC" fill="#FFFFFF"></path>
                </g>
            </g>
        </g>
    </g>
</svg>