<?xml version="1.0" encoding="UTF-8"?>
<svg width="80px" height="80px" viewBox="0 0 80 80" version="1.1" xmlns="http://www.w3.org/2000/svg" xmlns:xlink="http://www.w3.org/1999/xlink">
    <!-- Generator: Sketch 64 (93537) - https://sketch.com -->
    <title>big-icon-转运站</title>
    <desc>Created with Sketch.</desc>
    <defs>
        <linearGradient x1="50%" y1="0%" x2="50%" y2="101.908323%" id="linearGradient-1">
            <stop stop-color="#7DCEFF" offset="0%"></stop>
            <stop stop-color="#2B9DE2" offset="100%"></stop>
        </linearGradient>
    </defs>
    <g id="页面-1" stroke="none" stroke-width="1" fill="none" fill-rule="evenodd">
        <g id="画板" transform="translate(-515.000000, -199.000000)" fill="url(#linearGradient-1)" fill-rule="nonzero">
            <g id="big-icon-转运站" transform="translate(515.000000, 199.000000)">
                <g transform="translate(16.000000, 17.000000)" id="形状">
                    <path d="M25.2020121,0.457335418 C24.6483802,-0.132595474 23.7289957,-0.154716109 23.1485175,0.407928056 C23.1319308,0.424005032 23.1157209,0.440478702 23.0999015,0.457335388 L0.26322795,16.9477429 C-0.338312993,17.2545206 -0.0494635043,18.9411765 2.62214561,18.9411765 L7.96536382,18.9411765 L7.96536382,43.2941177 C7.96536382,43.2941177 7.96536382,46 10.6369729,46 L37.353064,46 C40.0246731,46 40.0246731,43.2941177 40.0246731,43.2941177 L40.0246731,18.9411765 L45.3678914,18.9411765 C48.0395005,18.9411765 48.3405528,17.2522997 47.7390164,16.9477429 L25.2020121,0.457335418 Z M13.308582,25.5406169 L15.9048227,25.5406169 C17.2038876,21.8450114 20.8401347,18.9411765 24.9963823,18.9411765 C27.8535705,18.9411765 30.4517003,20.2614474 32.0098458,22.1082874 L29.1526576,23.6937657 C28.1126512,22.6367821 26.5545278,22.1082874 24.9964045,22.1082874 C22.6592222,22.1082874 20.5810985,23.4285584 19.5410865,25.277324 L22.1392163,25.277324 L17.7239102,29.7647059 L13.308582,25.5406057 L13.308582,25.5406169 Z M32.4575167,31.2809982 C31.3439187,34.9766038 28.2268169,37.8823529 24.6639548,37.8823529 C22.214686,37.8823529 19.9874901,36.562082 18.6518003,34.7133164 L21.1010691,33.1297581 C21.9925942,34.1867417 23.328265,34.7133164 24.6639358,34.7133164 C26.6674397,34.7133164 28.4488707,33.3930455 29.3404006,31.5462055 L27.1115853,31.5462055 L30.8965201,27.0588235 L34.6814549,31.5462055 L32.4558783,31.5462055 L32.4558783,31.2809982 L32.4575167,31.2809982 Z"></path>
                </g>
            </g>
        </g>
    </g>
</svg>