<?xml version="1.0" encoding="UTF-8"?>
<svg width="80px" height="80px" viewBox="0 0 80 80" version="1.1" xmlns="http://www.w3.org/2000/svg" xmlns:xlink="http://www.w3.org/1999/xlink">
    <!-- Generator: Sketch 64 (93537) - https://sketch.com -->
    <title>big-icon-考评员</title>
    <desc>Created with Sketch.</desc>
    <defs>
        <linearGradient x1="50%" y1="0%" x2="50%" y2="101.908323%" id="linearGradient-1">
            <stop stop-color="#DCD8B3" offset="0%"></stop>
            <stop stop-color="#A8A273" offset="100%"></stop>
        </linearGradient>
    </defs>
    <g id="页面-1" stroke="none" stroke-width="1" fill="none" fill-rule="evenodd">
        <g id="画板" transform="translate(-515.000000, -296.000000)" fill="url(#linearGradient-1)" fill-rule="nonzero">
            <g id="big-icon-考评员" transform="translate(515.000000, 296.000000)">
                <path d="M33.8181818,30 C30,30 30,32.1218254 30,33.8947368 L31.1135816,47.5156083 L31.1455805,47.9162367 C31.3162413,48.8790482 32.0991178,49.6072849 33.0420884,49.6072849 L33.6265418,49.6094569 L33.7076356,49.6072332 L33.7886796,49.6094569 C34.4071106,49.6613204 34.9052866,50.1569221 34.9812117,50.795828 C34.991878,50.8578331 34.9940213,50.9175628 34.9982579,50.9773442 L36.0307955,64.9326805 L36.0542215,65.2447746 C36.1837986,66.2379734 36.9933892,66.9839014 37.9592525,67 L43.0492705,67 C43.99895,66.9857392 44.8002383,66.2628478 44.9457785,65.2890419 L44.9756341,64.8861898 L46.008122,50.9552108 C46.008122,50.9087199 46.0145018,50.8644527 46.0209315,50.8201855 C46.087087,50.1717019 46.5872073,49.6629963 47.2134138,49.6072331 L47.2966508,49.6050611 L47.3776948,49.6072331 L47.9515317,49.6072331 C48.9157851,49.6050611 49.7157576,48.8391766 49.858706,47.8431648 L49.8608492,47.8188592 L49.8778953,47.6130374 L51,33.8947368 C51,32.1240491 51,30 47.1818182,30 L33.8181818,30 Z M40.4989428,28 C44.0872844,28 47,24.8648971 47,21.0011214 C47,17.1351029 44.0872844,14 40.4989428,14 C36.9085359,14 34,17.1351029 34,21.0011214 C34,24.8649481 36.9085359,28 40.4989428,28 Z" id="形状"></path>
            </g>
        </g>
    </g>
</svg>