<?xml version="1.0" encoding="UTF-8"?>
<svg width="80px" height="80px" viewBox="0 0 80 80" version="1.1" xmlns="http://www.w3.org/2000/svg" xmlns:xlink="http://www.w3.org/1999/xlink">
    <!-- Generator: Sketch 64 (93537) - https://sketch.com -->
    <title>big-icon-填埋场</title>
    <desc>Created with Sketch.</desc>
    <defs>
        <linearGradient x1="50%" y1="0%" x2="50%" y2="101.908323%" id="linearGradient-1">
            <stop stop-color="#18DF73" offset="0%"></stop>
            <stop stop-color="#0BA752" offset="100%"></stop>
        </linearGradient>
    </defs>
    <g id="页面-1" stroke="none" stroke-width="1" fill="none" fill-rule="evenodd">
        <g id="画板" transform="translate(-595.000000, -199.000000)" fill="url(#linearGradient-1)" fill-rule="nonzero">
            <g id="big-icon-填埋场" transform="translate(595.000000, 199.000000)">
                <g id="填埋场沼气发电" transform="translate(12.000000, 19.000000)">
                    <path d="M50.5183006,27.6158726 C50.6806465,27.7359966 50.8364816,27.8653487 50.9850935,28.0033384 C51.1507055,27.9699051 51.3190904,27.9535618 51.4877947,27.9545465 C58.5448404,28.0935744 55.9854832,41.9089932 52.8111582,42.0002527 L52.7027175,41.9980069 L49.135145,41.9980069 L42,28.0016754 L42,19.6828614 C43.8340498,19.6283236 49.6123331,18.4315181 50.5183006,27.6158726 Z M5.6,0 L21.9357114,0.00901253032 L28,16.8046103 L30.8,16.8046103 L30.8,5.60754511 L28,5.60754511 L28,0.00901253032 L30.8,0.00901253032 L30.8,2.80827882 L33.6,2.80827882 L33.6,25.2024091 L36.4,28.0016754 L36.4,11.2060777 L39.2,11.2060777 L39.2,28.0016754 L44.8113904,41.9980069 L36.4,41.9980069 L36.4,36.3994743 L33.6,41.9980069 L2.8,41.9980069 L0,36.3994743 L0,25.2114217 L2.8,25.2024091 L2.8,14.005344 L5.6,14.005344 L5.6,0 Z M26.5,30.8009417 L9.9,30.8009417 C9.12030388,30.8009417 8.47955132,31.3958298 8.40686658,32.1564817 L8.4,32.3009417 L8.4,37.6987406 C8.4,38.4784367 8.99488808,39.1191893 9.75553999,39.191874 L9.9,39.1987406 L26.5,39.1987406 C27.2796961,39.1987406 27.9204487,38.6038525 27.9931334,37.8432006 L28,37.6987406 L28,32.3009417 C28,31.4725146 27.3284271,30.8009417 26.5,30.8009417 Z M21.9,33.600208 C22.1761424,33.600208 22.4,33.8240656 22.4,34.100208 L22.4,35.8994743 C22.4,36.1756167 22.1761424,36.3994743 21.9,36.3994743 L14.5,36.3994743 C14.2238576,36.3994743 14,36.1756167 14,35.8994743 L14,34.100208 C14,33.8240656 14.2238576,33.600208 14.5,33.600208 L21.9,33.600208 Z M19.6,5.60754511 L11.2,5.60754511 L11.2,16.8046103 L22.4,16.8046103 L19.6,5.60754511 Z" id="形状结合"></path>
                </g>
            </g>
        </g>
    </g>
</svg>