<?xml version="1.0" encoding="UTF-8"?>
<svg width="80px" height="80px" viewBox="0 0 80 80" version="1.1" xmlns="http://www.w3.org/2000/svg" xmlns:xlink="http://www.w3.org/1999/xlink">
    <!-- Generator: Sketch 64 (93537) - https://sketch.com -->
    <title>big-icon-环卫车辆</title>
    <desc>Created with Sketch.</desc>
    <defs>
        <linearGradient x1="50%" y1="0%" x2="50%" y2="101.908323%" id="linearGradient-1">
            <stop stop-color="#18DF73" offset="0%"></stop>
            <stop stop-color="#0BA752" offset="100%"></stop>
        </linearGradient>
    </defs>
    <g id="页面-1" stroke="none" stroke-width="1" fill="none" fill-rule="evenodd">
        <g id="画板" transform="translate(-675.000000, -296.000000)" fill="url(#linearGradient-1)" fill-rule="nonzero">
            <g id="big-icon-环卫车辆" transform="translate(675.000000, 296.000000)">
                <g id="环卫车" transform="translate(11.000000, 22.000000)">
                    <path d="M7.98447948,27.7038672 C8.37913079,27.7081963 8.77166909,27.7568382 9.15451477,27.8486386 L9.43971306,27.925563 C10.7458043,28.3221443 11.8153907,29.2446907 12.3886174,30.4578343 L12.4902172,30.6886467 C12.5796056,30.9004211 12.6481449,31.1199674 12.6949962,31.3442592 L12.7345872,31.5700214 C12.7739548,31.737877 12.8001801,31.9083315 12.8130943,32.0798826 L12.8224614,32.3378439 L12.8144262,32.390844 L12.8144262,32.390844 L12.8032303,32.4432836 C12.6931276,35.06602 10.4445984,37.1042811 7.78099366,36.9958681 C5.27171894,36.8937358 3.26119369,34.9140683 3.15748189,32.4432836 L3.15748189,32.3351409 C3.15872006,32.1633333 3.17056925,31.9918384 3.19293999,31.8216046 L3.23437597,31.5673189 C3.27103917,31.3659493 3.31960213,31.1669461 3.37978672,30.9713196 L3.4787449,30.680539 C3.98916735,29.4412951 5.00272698,28.4737066 6.26729385,28.0071205 L6.50728019,27.9255627 C6.89076706,27.8120069 7.28573804,27.7415299 7.68466239,27.7152616 L7.98447948,27.7038672 Z M40.2296741,27.8418135 L40.4911236,27.9147241 C41.7948782,28.313276 42.8621085,29.2355475 43.4346436,30.4472742 L43.5361338,30.677808 C43.6266787,30.8911904 43.6975362,31.1119973 43.7479353,31.3375527 L43.7914862,31.5645916 C43.8257495,31.7331917 43.8494259,31.9036278 43.8624113,32.0749308 L43.8738581,32.332414 L43.86712,32.3840153 L43.86712,32.3840153 L43.8573839,32.4351503 C43.7472812,35.0578867 41.498752,37.0961478 38.8351472,36.9877348 C36.3258725,36.8856024 34.3153473,34.905935 34.2116355,32.4351503 L34.2089021,32.4432609 L34.1992511,32.3893979 L34.1992511,32.3893979 L34.1924277,32.3351222 C34.2034983,31.86294 34.2820585,31.3951224 34.4254062,30.9453785 L34.5191673,30.6778114 C35.0319471,29.4329212 36.0515108,28.4618998 37.3229026,27.996087 L37.5641777,27.914724 C38.4303535,27.647385 39.3531953,27.6230815 40.2296741,27.8418135 Z M39.0304092,30.4155632 C38.6597828,30.4106224 38.2946394,30.5040098 37.9733054,30.6859237 L37.9733024,30.675103 C37.6721473,30.8564064 37.4229294,31.1088191 37.2475142,31.4083223 L37.1660581,31.5618871 C37.0659343,31.8061449 37.0119645,32.066358 37.0068061,32.3297097 L37.0068061,32.4432612 C37.1077481,33.5437214 38.0955744,34.3552455 39.2131792,34.2558513 C40.190931,34.1688956 40.9656993,33.4060138 41.0540087,32.4432612 L41.0540087,32.340534 C41.0521558,32.1431987 41.0223646,31.9474082 40.9657567,31.7587633 L40.9002515,31.5727076 C40.7425498,31.2587544 40.5101946,30.9880136 40.2240125,30.7829049 L40.0765323,30.6859237 C39.8122634,30.5339084 39.5169888,30.4436446 39.2133877,30.4209935 L39.0304092,30.4155632 Z M7.97076259,30.4155554 C7.6065421,30.4132107 7.24827254,30.5065366 6.93287702,30.6859159 L6.93288197,30.6751029 C6.6246552,30.8520542 6.36955007,31.104568 6.19159806,31.4067668 L6.1091627,31.5618869 C6.00903895,31.8061448 5.95506915,32.0663579 5.94991065,32.3297095 L5.94991065,32.4432598 C6.0507836,33.5422265 7.03732375,34.3525934 8.15341184,34.2532679 C9.07550181,34.171207 9.81679427,33.4871707 9.97064896,32.6015558 L9.99161901,32.4432616 C9.99673788,32.2050696 9.96310842,31.9679959 9.89236157,31.7409576 L9.83236744,31.5726998 C9.67698483,31.2571906 9.4444976,30.9857308 9.15692375,30.7820174 L9.00864826,30.6859159 C8.74674261,30.5342385 8.45377156,30.4440131 8.15240716,30.4211457 L7.97076259,30.4155554 Z M47.9376407,27.0036262 L47.9376407,31.5835447 C47.9358913,31.7796803 47.8667828,31.968224 47.7434633,32.1193953 L47.6630715,32.205375 C47.4935897,32.3669027 47.2674168,32.4579201 47.0315533,32.4595141 L47.0205781,32.4513721 L45.0985678,32.4513721 L45.098568,32.3432434 C45.0961709,32.1718114 45.0855854,32.0006333 45.06686,31.8302743 L45.0326733,31.5754216 C45.008446,31.3750631 44.9721919,31.1763818 44.9241328,30.9804172 L44.8432183,30.6886378 C44.5298445,29.6964767 43.9528069,28.8068012 43.1742024,28.1105706 L42.9569049,27.9255542 C42.6385457,27.6619328 42.2924443,27.4326224 41.9245135,27.2415437 C41.8009558,27.1793606 41.6499409,27.117178 41.5099086,27.0387731 C41.4934343,27.0387731 41.4797057,27.0036262 41.4440112,27.0036262 L47.9376407,27.0036262 Z M11.8258367,11.8390644 C12.0910738,11.8367328 12.3436355,11.9506723 12.5150134,12.1500154 L12.5150134,26.6440456 C12.5191016,26.7892018 12.5755588,26.928179 12.6742653,27.036068 L12.7566373,27.036068 L12.7566373,27.098251 C12.8600527,27.1839924 12.9894824,27.2334483 13.1245645,27.2388386 L36.1337474,27.2388388 C35.8600923,27.3838025 35.5981479,27.5489522 35.350134,27.7328101 L35.1068461,27.9228491 C34.290093,28.5793972 33.6732497,29.4426759 33.320979,30.4174058 L33.2315135,30.6859329 C33.1698409,30.8784446 33.1210805,31.0746258 33.0855031,31.273206 L33.0420584,31.5727167 C33.017159,31.7423399 32.9990795,31.912832 32.9878542,32.0837939 L32.976161,32.3405393 C32.9723738,32.3746834 32.9723738,32.409132 32.976161,32.4432763 L14.0718456,32.4513721 L14.0718456,32.3486351 C14.0718456,32.1683947 14.0584221,31.9977677 14.0429647,31.8303448 L14.0196768,31.5808122 C13.9878356,31.3817586 13.9491177,31.1838605 13.9035965,30.9874609 L13.8302217,30.6940284 C13.4883595,29.6116708 12.8327155,28.6512796 11.9439083,27.9309446 L11.8478077,27.9309446 L11.88156,27.9259988 L11.88156,27.9259988 L11.9137051,27.914723 C11.5532234,27.6099246 11.1540476,27.3532138 10.7265344,27.150877 L10.4667081,27.0360498 C10.1663368,26.9131648 9.85883035,26.8081948 9.54586035,26.7216739 L9.23113123,26.6413226 C8.92566986,26.5836578 8.61665327,26.5468425 8.30628926,26.5310889 L7.99555773,26.5223638 C7.68318285,26.524236 7.37142564,26.5471011 7.06245364,26.5907514 L6.75449005,26.6413226 C6.44009897,26.7155697 6.13063065,26.8083815 5.82775996,26.9192211 L5.5271505,27.0360499 C5.08548476,27.2197959 4.6697842,27.4580975 4.28994634,27.7449446 L4.06642588,27.9228306 C3.00115001,28.7814576 2.28338508,29.9833293 2.03647021,31.310959 L1.99340174,31.5780975 C1.95336289,31.8322224 1.93134396,32.0887847 1.92750435,32.3459201 L1.92750435,32.4432502 L0.930802401,32.4432502 C0.432849871,32.458427 0.0164198111,32.0737855 0,31.5835044 L0,27.0360542 C0.00160028773,26.8162284 0.0937523145,26.6064562 0.255352856,26.4547793 L0.255352943,19.8606897 C0.219078156,16.9510694 1.45862635,14.1730098 3.64645576,12.2323849 L3.89343364,12.0202421 C4.05171276,11.9028661 4.24443272,11.8392951 4.44257735,11.8390644 L11.8258367,11.8390644 Z M42.4322968,2.44676819 L55.1010753,9.51939329 L59,18.773838 L59,21.4936651 L52.3031703,26.0897884 L50.1917207,26.100608 L39.2445067,2.44676819 L42.4322968,2.44676819 Z M34.962963,0 L36.1636928,1.40101278 L45.8888889,22.2302062 L45.8888889,23.9411765 L15.2036035,23.9337588 L15.2036035,3.22356676 L32.2771241,3.06734756 L31.3081157,0 L34.962963,0 Z M30.584064,16.2943373 L29.0428042,19.0295216 L30.584064,21.7647059 L30.584064,20.597629 L32.1253237,20.597629 C32.4982342,20.597629 32.8599422,20.4028435 33.0568006,20.0541936 L34.962963,16.6773674 C34.6812794,17.1667861 34.1627246,17.4761525 33.6057631,17.4679678 L30.584064,17.4679614 L30.584064,16.2943373 Z M28.0409054,17.4957866 L24.9519891,17.4957866 C24.5918822,18.1390698 24.238177,18.7627111 24.238177,18.7627111 C24.015703,19.1440936 24.015703,19.6269662 24.2317678,20.00999 C24.4478327,20.399561 24.854353,20.6336313 25.2944844,20.6270841 L28.0409054,20.6270841 L28.0409054,17.4957866 Z M24.9391721,13.7342891 L21.8518519,13.7342891 L22.8409457,14.3170094 L22.0679155,15.6788756 C21.8774589,16.0078825 21.8646554,16.4236438 22.0615136,16.7788411 L23.9692845,20.1573123 C23.687601,19.6613464 23.6940028,19.0507996 23.9756865,18.5548273 L25.4897381,15.8802058 L26.4788357,16.4694734 L24.9391721,13.7342891 Z M10.9279898,13.6261756 L4.79129194,13.6261756 C3.30835273,14.9681711 2.36744357,16.7923184 2.14164646,18.7630258 L10.9279898,18.7630258 L10.9279898,13.6261756 Z M33.332081,12.8422036 L30.6832948,14.4037651 L32.2229585,17.1405817 L33.6457722,17.140583 C34.0779007,17.1471304 34.4844223,16.9065127 34.7084888,16.5234889 C34.9245537,16.1339179 34.9245537,15.65923 34.7020869,15.2762062 C34.7020869,15.2762062 33.9354584,13.9225273 33.332081,12.8422036 Z M30.4064009,8.70588235 L26.5908715,8.70588235 C26.1907529,8.70588235 25.856253,8.93340544 25.6657964,9.26241236 C25.3328976,9.81894236 24.0605191,12.1056252 24.0605191,12.1056252 L26.7221112,13.6737288 C26.7157093,13.6737288 28.7163071,10.1332211 29.0764091,9.49647633 C29.3580926,9.00051551 29.8494393,8.70588235 30.4064009,8.70588235 Z M30.4016039,9.02670328 C29.9694754,9.02670328 29.5629538,9.26732089 29.3468902,9.65689189 C29.3468902,9.65689189 28.993185,10.2805332 28.6394798,10.9172691 L29.3580939,12.1923783 L28.3609972,12.7685501 L31.4419081,12.7620027 L32.9895734,10.0268211 L32.0004795,10.6160887 C32.0004795,10.6160887 31.6131645,9.925336 31.4563177,9.65034463 C31.2402528,9.26895834 30.8337325,9.02015602 30.4016039,9.02670328 Z" id="形状结合"></path>
                </g>
            </g>
        </g>
    </g>
</svg>