<?xml version="1.0" encoding="UTF-8"?>
<svg width="80px" height="80px" viewBox="0 0 80 80" version="1.1" xmlns="http://www.w3.org/2000/svg" xmlns:xlink="http://www.w3.org/1999/xlink">
    <!-- Generator: Sketch 64 (93537) - https://sketch.com -->
    <title>big-icon-热电厂</title>
    <desc>Created with Sketch.</desc>
    <defs>
        <linearGradient x1="50%" y1="0%" x2="50%" y2="101.908323%" id="linearGradient-1">
            <stop stop-color="#FFFE6A" offset="0%"></stop>
            <stop stop-color="#B3B32F" offset="100%"></stop>
        </linearGradient>
    </defs>
    <g id="页面-1" stroke="none" stroke-width="1" fill="none" fill-rule="evenodd">
        <g id="画板" transform="translate(-675.000000, -199.000000)">
            <g id="big-icon-热电厂" transform="translate(675.000000, 199.000000)">
                <g id="gf第三热力发电厂" transform="translate(19.000000, 15.000000)">
                    <path d="M34.125,15.9090909 C33.2649258,20.5297296 33.5565925,25.8327599 35,31.8181818 C36.4434075,37.8036037 38.7767409,43.8642098 42,50 L0,50 C3.44862475,42.9296794 5.78195808,36.8690733 7,31.8181818 C8.21804192,26.7672903 8.50970858,21.46426 7.875,15.9090909 L34.125,15.9090909 Z M26.452043,23.4449761 L16.7595335,23.4449761 L13.125,37.8886407 L19.1827333,37.8886407 L17.9711398,46.0526316 L28.875,30.9809422 L22.8172667,30.9809422 L26.452043,23.4449761 Z M13.5860564,0 C14.7264132,0 15.6606707,0.698676769 15.7432471,1.58487754 L15.7491806,1.71271331 C15.765649,2.49941978 15.5336591,3.27692051 15.0742771,3.97461485 C14.8896903,4.28061674 14.8262392,4.38452079 14.8262392,4.75446519 C14.8262392,5.12669176 14.8882487,5.23059527 15.0742771,5.53774092 C15.3425045,5.98075866 15.7477299,6.6509947 15.7477299,7.80078783 C15.7477299,8.95058096 15.3425045,9.62195863 15.0742771,10.0638348 C14.9160599,10.3271011 14.8468402,10.4410478 14.8302921,10.7026373 L14.8262392,10.8471105 C14.8262392,11.7500116 13.9438161,12.4897293 12.8245517,12.5551109 L12.6631238,12.5598086 C11.522767,12.5598086 10.5885096,11.8611178 10.5059332,10.9749157 L10.5,10.847095 L10.5,10.847095 C10.5,9.6961619 10.9052254,9.02592425 11.1734528,8.58404813 C11.3594814,8.27690409 11.4214907,8.1741422 11.4214907,7.8007724 C11.4214907,7.42740421 11.3594812,7.32464232 11.1734528,7.01749667 C10.9052254,6.57447893 10.5,5.90424289 10.5,4.75444976 C10.5,3.60465663 10.9052254,2.93442433 11.1748946,2.49254821 C11.3331119,2.23026087 11.4023315,2.11645359 11.4188797,1.85632212 L11.4229326,1.71269813 C11.4229324,0.766801715 12.3913969,0 13.5860564,0 Z M21.4610782,0 C22.601443,0 23.5357071,0.698677318 23.6182841,1.58487879 L23.6242174,1.71270441 C23.6402809,2.49924023 23.408837,3.27657565 22.9507572,3.97460773 C22.7647272,4.28060986 22.7027174,4.38337183 22.7027174,4.75445868 C22.7027174,5.12668554 22.7647274,5.23058913 22.9507572,5.53773502 C23.2204283,5.98075311 23.6242147,6.65098968 23.6242147,7.80078372 C23.6242147,8.95057775 23.2204289,9.62195594 22.9507572,10.0638324 C22.7879809,10.3325837 22.7201577,10.4448547 22.7057453,10.718852 L22.7027174,10.8471091 C22.7027174,11.7930063 21.7342463,12.5598086 20.5395783,12.5598086 L20.5381391,12.5598086 C19.3977743,12.5598086 18.4635102,11.8611262 18.3809332,10.9749243 L18.375,10.8471036 L18.375,10.8471036 C18.375,9.69616952 18.7802283,9.02593134 19.0484575,8.58405487 C19.2344875,8.27691059 19.2964972,8.17414862 19.2964972,7.80077853 C19.2964972,7.42741004 19.2344873,7.32464807 19.0484575,7.01750218 C18.7802283,6.5744841 18.375,5.90424752 18.375,4.75445349 C18.375,3.60465946 18.7802283,2.93442663 19.0498994,2.49255016 C19.2081178,2.23026263 19.2773379,2.11645525 19.2938861,1.85632358 L19.2979391,1.71269948 C19.2979389,0.766802317 20.2664103,0 21.4610782,0 Z M29.3360085,0 C30.4760648,0 31.4100761,0.698677821 31.4926307,1.58487993 L31.4985626,1.71271302 C31.5144575,2.49987027 31.2820463,3.27772541 30.8223996,3.975758 C30.6378614,4.28176034 30.5758684,4.38452239 30.5758684,4.75446414 C30.5758684,5.12554911 30.6393034,5.22945331 30.8252832,5.53659568 C31.0948814,5.98075624 31.5,6.64985114 31.5,7.80078602 C31.5,8.9517209 31.0948814,9.62195956 30.8252832,10.0649764 C30.6658721,10.3282431 30.5964937,10.44219 30.5799246,10.7030586 L30.5758684,10.8471079 C30.5758684,11.7500104 29.6936779,12.4897292 28.5747085,12.5551109 L28.4133212,12.5598086 C27.2732649,12.5598086 26.3392536,11.8611243 26.256699,10.9749216 L26.2507674,10.8471008 L26.2507674,10.8471008 C26.2507674,9.69502586 26.655886,9.02592721 26.9254842,8.58291041 C27.1114638,8.2757659 27.1748989,8.17300386 27.1748989,7.80077887 C27.1748989,7.47508013 27.1263315,7.3556906 26.9895977,7.12517087 L26.9254841,7.01864726 C26.4667341,6.31997776 26.2348523,5.54184431 26.2507673,4.75445692 C26.2507673,3.60352204 26.6573274,2.93442875 26.9269236,2.49140659 C27.0850991,2.22911887 27.1532415,2.11615055 27.1694827,1.85626046 L27.1734547,1.71270071 C27.1734545,0.76680287 28.1416638,0 29.3360085,0 Z" id="形状结合" fill="url(#linearGradient-1)" fill-rule="nonzero"></path>
                    <g id="闪电" transform="translate(14.000000, 23.000000)"></g>
                </g>
            </g>
        </g>
    </g>
</svg>